<svg width="227" height="48" viewBox="0 0 227 48" fill="none" xmlns="http://www.w3.org/2000/svg">
<path d="M82.6975 22.0022C82.1855 21.0635 81.4815 20.3489 80.5855 19.8582C79.6895 19.3675 78.6442 19.1222 77.4495 19.1222C76.1268 19.1222 74.9535 19.4209 73.9295 20.0182C72.9055 20.6155 72.1055 21.4689 71.5295 22.5782C70.9535 23.6875 70.6655 24.9675 70.6655 26.4182C70.6655 27.9115 70.9535 29.2129 71.5295 30.3222C72.1268 31.4315 72.9482 32.2849 73.9935 32.8822C75.0388 33.4795 76.2548 33.7782 77.6415 33.7782C79.3482 33.7782 80.7455 33.3302 81.8335 32.4342C82.9215 31.5169 83.6362 30.2475 83.9775 28.6262H76.2975V25.2022H88.3935V29.1062C88.0948 30.6635 87.4548 32.1035 86.4735 33.4262C85.4922 34.7489 84.2228 35.8155 82.6655 36.6262C81.1295 37.4155 79.4015 37.8102 77.4815 37.8102C75.3268 37.8102 73.3748 37.3302 71.6255 36.3702C69.8975 35.3889 68.5322 34.0342 67.5295 32.3062C66.5482 30.5782 66.0575 28.6155 66.0575 26.4182C66.0575 24.2209 66.5482 22.2582 67.5295 20.5302C68.5322 18.7809 69.8975 17.4262 71.6255 16.4662C73.3748 15.4849 75.3162 14.9942 77.4495 14.9942C79.9668 14.9942 82.1535 15.6129 84.0095 16.8502C85.8655 18.0662 87.1455 19.7835 87.8495 22.0022H82.6975ZM99.58 37.9062C97.8733 37.9062 96.3373 37.5329 94.972 36.7862C93.6067 36.0182 92.5293 34.9409 91.74 33.5542C90.972 32.1675 90.588 30.5675 90.588 28.7542C90.588 26.9409 90.9827 25.3409 91.772 23.9542C92.5827 22.5675 93.6813 21.5009 95.068 20.7542C96.4547 19.9862 98.0013 19.6022 99.708 19.6022C101.415 19.6022 102.961 19.9862 104.348 20.7542C105.735 21.5009 106.823 22.5675 107.612 23.9542C108.423 25.3409 108.828 26.9409 108.828 28.7542C108.828 30.5675 108.412 32.1675 107.58 33.5542C106.769 34.9409 105.66 36.0182 104.252 36.7862C102.865 37.5329 101.308 37.9062 99.58 37.9062ZM99.58 34.0022C100.391 34.0022 101.148 33.8102 101.852 33.4262C102.577 33.0209 103.153 32.4235 103.58 31.6342C104.007 30.8449 104.22 29.8849 104.22 28.7542C104.22 27.0689 103.772 25.7782 102.876 24.8822C102.001 23.9649 100.924 23.5062 99.644 23.5062C98.364 23.5062 97.2867 23.9649 96.412 24.8822C95.5587 25.7782 95.132 27.0689 95.132 28.7542C95.132 30.4395 95.548 31.7409 96.38 32.6582C97.2333 33.5542 98.3 34.0022 99.58 34.0022ZM128.402 22.1942C128.402 23.3889 128.114 24.5089 127.538 25.5542C126.984 26.5995 126.098 27.4422 124.882 28.0822C123.688 28.7222 122.173 29.0422 120.338 29.0422H116.594V37.6182H112.114V15.2822H120.338C122.066 15.2822 123.538 15.5809 124.754 16.1782C125.97 16.7755 126.877 17.5969 127.474 18.6422C128.093 19.6875 128.402 20.8715 128.402 22.1942ZM120.146 25.4262C121.384 25.4262 122.301 25.1489 122.898 24.5942C123.496 24.0182 123.794 23.2182 123.794 22.1942C123.794 20.0182 122.578 18.9302 120.146 18.9302H116.594V25.4262H120.146ZM136.063 13.9382V37.6182H131.583V13.9382H136.063ZM139.337 28.6902C139.337 26.8982 139.689 25.3089 140.393 23.9222C141.119 22.5355 142.089 21.4689 143.305 20.7222C144.543 19.9755 145.919 19.6022 147.433 19.6022C148.756 19.6022 149.908 19.8689 150.889 20.4022C151.892 20.9355 152.692 21.6075 153.289 22.4182V19.8902H157.801V37.6182H153.289V35.0262C152.713 35.8582 151.913 36.5515 150.889 37.1062C149.887 37.6395 148.724 37.9062 147.401 37.9062C145.908 37.9062 144.543 37.5222 143.305 36.7542C142.089 35.9862 141.119 34.9089 140.393 33.5222C139.689 32.1142 139.337 30.5035 139.337 28.6902ZM153.289 28.7542C153.289 27.6662 153.076 26.7382 152.649 25.9702C152.223 25.1809 151.647 24.5835 150.921 24.1782C150.196 23.7515 149.417 23.5382 148.585 23.5382C147.753 23.5382 146.985 23.7409 146.281 24.1462C145.577 24.5515 145.001 25.1489 144.553 25.9382C144.127 26.7062 143.913 27.6235 143.913 28.6902C143.913 29.7569 144.127 30.6955 144.553 31.5062C145.001 32.2955 145.577 32.9035 146.281 33.3302C147.007 33.7569 147.775 33.9702 148.585 33.9702C149.417 33.9702 150.196 33.7675 150.921 33.3622C151.647 32.9355 152.223 32.3382 152.649 31.5702C153.076 30.7809 153.289 29.8422 153.289 28.7542ZM179.137 19.8902L168.161 46.0022H163.393L167.233 37.1702L160.129 19.8902H165.153L169.729 32.2742L174.369 19.8902H179.137ZM186.032 13.9382V37.6182H181.552V13.9382H186.032ZM192.73 17.7782C191.941 17.7782 191.279 17.5329 190.746 17.0422C190.234 16.5302 189.978 15.9009 189.978 15.1542C189.978 14.4075 190.234 13.7889 190.746 13.2982C191.279 12.7862 191.941 12.5302 192.73 12.5302C193.519 12.5302 194.17 12.7862 194.682 13.2982C195.215 13.7889 195.482 14.4075 195.482 15.1542C195.482 15.9009 195.215 16.5302 194.682 17.0422C194.17 17.5329 193.519 17.7782 192.73 17.7782ZM194.938 19.8902V37.6182H190.458V19.8902H194.938ZM206.148 37.9062C204.698 37.9062 203.396 37.6502 202.244 37.1382C201.092 36.6049 200.175 35.8902 199.492 34.9942C198.831 34.0982 198.468 33.1062 198.404 32.0182H202.916C203.002 32.7009 203.332 33.2662 203.908 33.7142C204.506 34.1622 205.242 34.3862 206.116 34.3862C206.97 34.3862 207.631 34.2155 208.1 33.8742C208.591 33.5329 208.836 33.0955 208.836 32.5622C208.836 31.9862 208.538 31.5595 207.94 31.2822C207.364 30.9835 206.436 30.6635 205.156 30.3222C203.834 30.0022 202.746 29.6715 201.892 29.3302C201.06 28.9889 200.335 28.4662 199.716 27.7622C199.119 27.0582 198.82 26.1089 198.82 24.9142C198.82 23.9329 199.098 23.0369 199.652 22.2262C200.228 21.4155 201.039 20.7755 202.084 20.3062C203.151 19.8369 204.399 19.6022 205.828 19.6022C207.94 19.6022 209.626 20.1355 210.884 21.2022C212.143 22.2475 212.836 23.6662 212.964 25.4582H208.676C208.612 24.7542 208.314 24.1995 207.78 23.7942C207.268 23.3675 206.575 23.1542 205.7 23.1542C204.89 23.1542 204.26 23.3035 203.812 23.6022C203.386 23.9009 203.172 24.3169 203.172 24.8502C203.172 25.4475 203.471 25.9062 204.068 26.2262C204.666 26.5249 205.594 26.8342 206.852 27.1542C208.132 27.4742 209.188 27.8049 210.02 28.1462C210.852 28.4875 211.567 29.0209 212.164 29.7462C212.783 30.4502 213.103 31.3889 213.124 32.5622C213.124 33.5862 212.836 34.5035 212.26 35.3142C211.706 36.1249 210.895 36.7649 209.828 37.2342C208.783 37.6822 207.556 37.9062 206.148 37.9062ZM222.018 23.5702V32.1462C222.018 32.7435 222.156 33.1809 222.434 33.4582C222.732 33.7142 223.223 33.8422 223.906 33.8422H225.986V37.6182H223.17C219.394 37.6182 217.506 35.7835 217.506 32.1142V23.5702H215.394V19.8902H217.506V15.5062H222.018V19.8902H225.986V23.5702H222.018Z" fill="white"/>
<circle cx="24" cy="24" r="24" fill="white"/>
<path d="M24 36.5C17.0964 36.5 11.5 30.9036 11.5 24C11.5 17.0964 17.0964 11.5 24 11.5C30.9036 11.5 36.5 17.0964 36.5 24C36.4924 30.9004 30.9004 36.4924 24 36.5ZM14 24.215C14.0591 29.7166 18.5514 34.1369 24.0532 34.1075C29.555 34.0778 33.9994 29.6094 33.9994 24.1075C33.9994 18.6056 29.555 14.1372 24.0532 14.1075C18.5514 14.0781 14.0591 18.4985 14 24V24.215ZM21.5 29.625V18.375L29 24L21.5 29.625Z" fill="#6933FF"/>
</svg>
