<svg width="40" height="40" viewBox="0 0 40 40" fill="none" xmlns="http://www.w3.org/2000/svg">
<path d="M30.0001 23.3333C28.1591 23.3333 26.6667 21.8409 26.6667 20C26.6667 18.159 28.1591 16.6667 30.0001 16.6667C31.841 16.6667 33.3334 18.159 33.3334 20C33.3334 20.884 32.9822 21.7319 32.3571 22.357C31.732 22.9821 30.8841 23.3333 30.0001 23.3333ZM20.0001 23.3333C18.1591 23.3333 16.6667 21.8409 16.6667 20C16.6667 18.159 18.1591 16.6667 20.0001 16.6667C21.841 16.6667 23.3334 18.159 23.3334 20C23.3334 20.884 22.9822 21.7319 22.3571 22.357C21.732 22.9821 20.8841 23.3333 20.0001 23.3333ZM10.0001 23.3333C8.15913 23.3333 6.66675 21.8409 6.66675 20C6.66675 18.159 8.15913 16.6667 10.0001 16.6667C11.841 16.6667 13.3334 18.159 13.3334 20C13.3334 20.884 12.9822 21.7319 12.3571 22.357C11.732 22.9821 10.8841 23.3333 10.0001 23.3333Z" fill="white"/>
</svg>
